<?xml version="1.0" encoding="utf-8"?>

<!DOCTYPE svg PUBLIC "-//W3C//DTD SVG 1.1//EN" "http://www.w3.org/Graphics/SVG/1.1/DTD/svg11.dtd">
<svg version="1.1" id="Layer_1" xmlns="http://www.w3.org/2000/svg" xmlns:xlink="http://www.w3.org/1999/xlink" x="0px" y="0px"
	 viewBox="0 0 2560 1600" enable-background="new 0 0 2560 1600" xml:space="preserve">
<g>
	<path fill="none" d="M1276.27,78.407L467.617,1535.967l1666.611-28.466L1276.27,78.407z M574.442,1417.305l507.512-263.405
		c2.895,1.727,5.805,3.422,8.726,5.087l-527.275,299.179L574.442,1417.305z M566.511,1463.594l525.891-303.623
		c2.823,1.594,5.661,3.156,8.507,4.691l-493.575,310.112L566.511,1463.594z M1011.465,1061.019
		c-0.008,0.009-0.016,0.017-0.024,0.025c-0.429-0.432-0.859-0.865-1.288-1.297c-4.555-4.407-9.016-8.893-13.37-13.459
		c-4.918-4.951-9.836-9.902-14.755-14.853c82.026-76.412,194.93-127.623,307.621-127.08
		c103.027,5.959,203.223,55.621,277.665,127.104c0.008-0.008,0.016-0.017,0.024-0.025c0.43,0.432,0.859,0.865,1.289,1.298
		c4.549,4.402,9.005,8.882,13.354,13.442c4.924,4.956,9.847,9.913,14.771,14.869c-82.033,76.408-194.925,127.624-307.622,127.08
		C1186.103,1182.163,1085.907,1132.501,1011.465,1061.019z M1289.39,211.53v661.528l-1.541-0.005c-1.643,0-3.287,0.014-4.932,0.033
		l-23.619-631.792L1289.39,211.53z M1325.512,241.543l-28.368,631.941c-1.896-0.138-3.791-0.265-5.686-0.374l-0.772-0.045
		l4.955-661.511L1325.512,241.543z M1497,1168.185l512.123,300.812l-40.905,10.873l-480.656-307.04
		C1490.719,1171.317,1493.865,1169.767,1497,1168.185z M1498.922,1167.212c3.255-1.659,6.497-3.354,9.723-5.084l492.895,260.523
		l10.73,40.943L1498.922,1167.212z M1961.205,1325.479l-427.511-177.695c3.547-2.161,7.068-4.366,10.565-6.611l395.612,147.356
		L1961.205,1325.479z M1935.828,1281.524l-389.415-141.736c3.648-2.368,7.267-4.781,10.857-7.238l359.406,115.801L1935.828,1281.524
		z M1875.432,1176.915l-290.365-64.745c3.917-3.073,7.787-6.195,11.605-9.372l264.026,48.597L1875.432,1176.915z M1857.858,1146.475
		l-258.847-45.642c3.985-3.356,7.915-6.766,11.784-10.23l233.406,32.218L1857.858,1146.475z M1813.572,1069.769l-171.97-7.719
		l0.146-0.137l-13.05-13.132l173.507,1.3L1813.572,1069.769z M1799.986,1046.239H1626.17l-12.064-12.139l175.092-6.546
		L1799.986,1046.239z M1764.235,984.316l-176.836,23.061c-3.425-3.261-6.888-6.475-10.394-9.634l177.684-29.96L1764.235,984.316z
		 M1752.809,964.526l-177.883,31.365c-3.375-3.007-6.782-5.97-10.229-8.878l178.876-38.482L1752.809,964.526z M1721.637,910.534
		l-181.511,56.986c-3.185-2.372-6.393-4.705-9.626-6.998l182.532-64.892L1721.637,910.534z M1711.323,892.669l-182.734,66.51
		c-3.11-2.186-6.243-4.334-9.394-6.444l183.662-74.731L1711.323,892.669z M1682.262,842.335l-185.442,96.246
		c-2.896-1.727-5.804-3.423-8.726-5.087l185.899-105.48L1682.262,842.335z M1672.338,825.145l-185.965,107.367
		c-2.824-1.594-5.66-3.156-8.506-4.691l186.205-116.992L1672.338,825.145z M1643.505,775.205l-185.894,142.28
		c-2.631-1.267-5.272-2.505-7.919-3.722l185.366-153.189L1643.505,775.205z M1633.353,757.62l-185.226,155.423
		c-2.572-1.171-5.152-2.315-7.738-3.438l184.385-166.845L1633.353,757.62z M1602.925,704.918l-181.053,197.099
		c-2.421-0.933-4.845-1.852-7.275-2.743l179.139-210.271L1602.925,704.918z M1591.866,685.763L1413.148,898.75
		c-2.377-0.864-4.758-1.708-7.143-2.531l176.37-226.892L1591.866,685.763z M1557.587,626.391l-168.811,264.265
		c-2.272-0.685-4.547-1.353-6.824-2l164.935-280.798L1557.587,626.391z M1544.689,604.05l-164.092,284.216
		c-2.245-0.63-4.493-1.236-6.741-1.83l159.569-301.895L1544.689,604.05z M1503.115,532.043l-145.642,350.397
		c-2.181-0.487-4.362-0.964-6.544-1.415l138.693-372.354L1503.115,532.043z M1486.817,503.813L1349.619,880.76
		c-2.166-0.442-4.333-0.865-6.501-1.273l129.158-400.861L1486.817,503.813z M1431.647,408.257l-104.477,468.547
		c-2.142-0.318-4.285-0.621-6.428-0.905l92.077-500.253L1431.647,408.257z M1408.847,368.765l-89.393,506.97
		c-2.141-0.276-4.281-0.534-6.422-0.776l74.877-542.459L1408.847,368.765z M1195.312,324.811l71.565,548.784
		c-2.177,0.111-4.354,0.234-6.532,0.378l-86.366-512.212L1195.312,324.811z M1169.934,368.766l89.098,505.302
		c-2.189,0.153-4.38,0.326-6.57,0.513l-101.68-472.643L1169.934,368.766z M1109.538,473.374l126.503,402.937
		c-2.248,0.28-4.495,0.58-6.743,0.897l-134.495-378.314L1109.538,473.374z M1091.964,503.814l135.974,373.586
		c-2.275,0.328-4.549,0.673-6.824,1.04l-142.807-350.97L1091.964,503.814z M1047.677,580.521l156.242,301.037
		c-2.372,0.479-4.746,0.981-7.118,1.501l-160.491-282.85L1047.677,580.521z M1034.092,604.05l161.268,279.324
		c-2.416,0.537-4.833,1.09-7.249,1.67l-164.807-262.308L1034.092,604.05z M998.341,665.973l171.364,223.894
		c-2.563,0.727-5.124,1.475-7.685,2.25l-173.225-209.61L998.341,665.973z M986.915,685.763l173.545,206.823
		c-2.62,0.801-5.239,1.635-7.856,2.486L977.68,701.759L986.915,685.763z M955.743,739.755l176.735,162.346
		c-2.82,1.055-5.639,2.142-8.455,3.253L947.138,754.659L955.743,739.755z M945.428,757.621l176.869,148.411
		c-2.899,1.156-5.794,2.35-8.688,3.567L936.962,772.286L945.428,757.621z M916.368,807.955l174.855,111.696
		c-3.159,1.513-6.306,3.063-9.44,4.643L908.1,822.276L916.368,807.955z M906.443,825.145l173.419,100.123
		c-3.256,1.659-6.498,3.354-9.724,5.085l-171.961-90.891L906.443,825.145z M877.611,875.084l167.476,69.611
		c-3.547,2.162-7.068,4.367-10.566,6.612l-165.357-61.592L877.611,875.084z M867.459,892.668l164.91,60.022
		c-3.648,2.368-7.268,4.781-10.858,7.238l-162.631-52.4L867.459,892.668z M837.03,945.372l156.681,34.937
		c-3.916,3.073-7.787,6.196-11.605,9.372l-154.264-28.394L837.03,945.372z M825.971,964.526l153.796,27.118
		c-3.986,3.357-7.916,6.766-11.785,10.23l-151.501-20.912L825.971,964.526z M791.693,1023.898l145.483,6.53l-0.142,0.132
		l13.05,13.136l-169.09-1.267L791.693,1023.898z M778.794,1046.239h173.815l12.061,12.14l-197.14,7.37L778.794,1046.239z
		 M737.221,1118.246l254.145-33.142c3.425,3.261,6.889,6.476,10.395,9.633l-278.033,46.88L737.221,1118.246z M720.923,1146.475
		l282.916-49.886c3.376,3.007,6.784,5.97,10.229,8.88l-307.687,66.193L720.923,1146.475z M665.754,1242.031l372.889-117.07
		c3.186,2.372,6.395,4.706,9.628,6.998l-401.346,142.683L665.754,1242.031z M642.953,1281.524l407.231-148.22
		c3.111,2.185,6.243,4.334,9.396,6.444L622.015,1317.79L642.953,1281.524z M722.83,1479.875l398.336-304.881
		c2.632,1.268,5.273,2.506,7.921,3.722l-364.415,301.158H722.83z M772.603,1479.875l358.048-300.438
		c2.572,1.171,5.152,2.315,7.738,3.439l-328.224,297H772.603z M891.058,1479.875l265.85-289.411
		c2.421,0.933,4.845,1.851,7.274,2.743l-244.226,286.669H891.058z M925.526,1479.875l240.105-286.146
		c2.377,0.864,4.758,1.709,7.144,2.53l-220.463,283.616H925.526z M1012.386,1479.875l177.618-278.052
		c2.273,0.686,4.547,1.352,6.824,2l-162.147,276.052H1012.386z M1039.03,1479.875l159.154-275.663
		c2.245,0.631,4.492,1.237,6.741,1.83l-144.736,273.832H1039.03z M1109.15,1479.875l112.158-269.837
		c2.181,0.487,4.362,0.964,6.545,1.417l-99.98,268.42H1109.15z M1131.559,1479.875l97.601-268.157
		c2.167,0.442,4.334,0.865,6.502,1.273l-85.99,266.884H1131.559z M1192.698,1479.875l58.911-264.2
		c2.143,0.318,4.285,0.62,6.428,0.905l-48.462,263.296H1192.698z M1212.928,1479.875l46.397-263.133
		c2.142,0.277,4.282,0.535,6.422,0.776l-36.214,262.357H1212.928z M1269.926,1479.875l11.71-260.881
		c1.899,0.138,3.797,0.264,5.694,0.374l0.764,0.044l-1.951,260.463H1269.926z M1289.39,1479.875v-260.456
		c0.75,0.003,1.561,0.005,1.565,0.005c1.636,0,3.272-0.013,4.907-0.032l9.738,260.484H1289.39z M1345.94,1479.875l-34.035-260.99
		c2.177-0.111,4.354-0.234,6.532-0.378l44.071,261.369H1345.94z M1365.852,1479.875l-46.103-261.464
		c2.19-0.152,4.38-0.326,6.571-0.513l56.359,261.978H1365.852z M1425.532,1479.875l-82.791-263.705
		c2.247-0.281,4.495-0.58,6.743-0.897l94.069,264.602H1425.532z M1447.222,1479.875l-96.377-264.794
		c2.274-0.328,4.549-0.673,6.824-1.039l108.165,265.833H1447.222z M1514.453,1479.875l-139.589-268.952
		c2.372-0.479,4.746-0.981,7.119-1.501l153.457,270.453H1514.453z M1539.751,1479.875l-156.328-270.769
		c2.416-0.536,4.833-1.09,7.249-1.669l171.171,272.438H1539.751z M1621.288,1479.875l-212.211-277.261
		c2.563-0.727,5.124-1.475,7.685-2.251l230.992,279.511H1621.288z M1653.255,1479.875l-234.932-279.98
		c2.62-0.802,5.239-1.635,7.857-2.486l255.596,282.467H1653.255z M1761.459,1479.875l-315.153-289.495
		c2.82-1.055,5.639-2.143,8.455-3.254l343.624,292.749H1761.459z M1806.177,1479.875l-349.691-293.426
		c2.899-1.156,5.795-2.351,8.689-3.568l382.068,296.994H1806.177z"/>
	<path fill="none" d="M1566.394,1032.422c-72.989-61.686-171.535-107.818-267.018-107.264
		c-106.751,0.62-214.303,58.489-286.991,134.898c72.989,61.687,171.535,107.818,267.018,107.264
		C1386.152,1166.701,1493.709,1108.833,1566.394,1032.422z M1289.391,1146.386c-53.583,0-97.021-43.438-97.021-97.021
		c0-4.746,0.347-9.409,1.005-13.973c4.37,20.493,22.57,35.866,44.367,35.866c25.059,0,45.373-20.314,45.373-45.373
		c0-25.059-20.314-45.373-45.373-45.373c-7.979,0-15.473,2.066-21.987,5.683c17.793-20.721,44.179-33.85,73.634-33.85
		c53.583,0,97.021,43.437,97.022,97.021C1386.411,1102.949,1342.974,1146.386,1289.391,1146.386z"/>
	<path d="M2135.538,1507.479L1318.116,34.114l-25.411,14.671l0-0.001l0,0.001l-25.411,14.671l8.302,13.828l-867.26,1444.59
		l25.412,14.672h0h0l25.41,14.67l7.824-14.103l1684.683,28.774v-58.684L2135.538,1507.479z M467.617,1535.967L1276.27,78.407
		l857.958,1429.094L467.617,1535.967z"/>
	<path d="M1596.753,1061.043c-4.924-4.956-9.848-9.913-14.771-14.869c-4.349-4.56-8.805-9.04-13.354-13.442
		c-0.43-0.433-0.859-0.865-1.289-1.298c-0.008,0.008-0.016,0.017-0.024,0.025c-74.442-71.483-174.638-121.145-277.665-127.104
		c-112.692-0.543-225.595,50.668-307.621,127.08c4.919,4.951,9.836,9.902,14.755,14.853c4.354,4.566,8.815,9.052,13.37,13.459
		c0.429,0.432,0.859,0.865,1.288,1.297c0.008-0.009,0.016-0.017,0.024-0.025c74.442,71.482,174.638,121.144,277.665,127.104
		C1401.828,1188.667,1514.719,1137.451,1596.753,1061.043z M1012.385,1060.056c72.687-76.41,180.24-134.279,286.991-134.898
		c95.484-0.554,194.029,45.578,267.018,107.264c-72.685,76.411-180.242,134.279-286.99,134.898
		C1183.92,1167.875,1085.374,1121.743,1012.385,1060.056z"/>
	<path d="M1289.39,952.345c-29.455,0-55.841,13.129-73.634,33.85c6.514-3.617,14.008-5.683,21.987-5.683
		c25.059,0,45.373,20.314,45.373,45.373c0,25.059-20.314,45.373-45.373,45.373c-21.797,0-39.997-15.372-44.367-35.866
		c-0.659,4.564-1.005,9.227-1.005,13.973c0,53.582,43.437,97.021,97.021,97.021c53.583,0,97.021-43.437,97.021-97.021
		C1386.41,995.782,1342.973,952.345,1289.39,952.345z"/>
	<path d="M1195.36,883.374L1034.092,604.05l-10.788,18.686l164.807,262.308C1190.527,884.464,1192.944,883.911,1195.36,883.374z"/>
	<path d="M1203.919,881.558l-156.242-301.037l-11.367,19.688l160.491,282.85C1199.173,882.539,1201.546,882.037,1203.919,881.558z"
		/>
	<path d="M1169.706,889.867L998.341,665.973l-9.545,16.533l173.225,209.61C1164.582,891.342,1167.143,890.593,1169.706,889.867z"/>
	<path d="M1259.032,874.068l-89.098-505.302l-19.152,33.172l101.68,472.643C1254.652,874.394,1256.843,874.222,1259.032,874.068z"/>
	<path d="M1160.46,892.587L986.915,685.763l-9.235,15.995l174.924,193.314C1155.222,894.222,1157.84,893.388,1160.46,892.587z"/>
	<path d="M1266.876,873.595l-71.565-548.784l-21.333,36.95l86.366,512.212C1262.522,873.828,1264.699,873.706,1266.876,873.595z"/>
	<path d="M1236.041,876.312l-126.503-402.937l-14.734,25.521l134.495,378.314C1231.546,876.892,1233.793,876.592,1236.041,876.312z"
		/>
	<path d="M1227.938,877.399l-135.974-373.586l-13.657,23.655l142.807,350.97C1223.388,878.072,1225.663,877.727,1227.938,877.399z"
		/>
	<path d="M1032.369,952.691l-164.91-60.022l-8.579,14.86l162.631,52.4C1025.1,957.472,1028.72,955.058,1032.369,952.691z"/>
	<path d="M1287.848,873.054l1.541,0.005V211.53l-30.093,29.764l23.619,631.792C1284.562,873.068,1286.206,873.054,1287.848,873.054z
		"/>
	<path d="M993.711,980.308L837.03,945.372l-9.188,15.914l154.264,28.394C985.924,986.504,989.796,983.382,993.711,980.308z"/>
	<path d="M1045.087,944.695l-167.476-69.611l-8.448,14.632l165.357,61.592C1038.019,949.061,1041.54,946.856,1045.087,944.695z"/>
	<path d="M979.768,991.645l-153.796-27.118l-9.49,16.437l151.501,20.912C971.851,998.41,975.782,995.001,979.768,991.645z"/>
	<path d="M1122.297,906.032L945.428,757.621l-8.467,14.665l176.648,137.313C1116.503,908.382,1119.398,907.188,1122.297,906.032z"/>
	<path d="M1132.478,902.101L955.743,739.755l-8.605,14.904l176.884,150.695C1126.839,904.242,1129.657,903.156,1132.478,902.101z"/>
	<path d="M1079.862,925.268L906.443,825.145l-8.266,14.317l171.961,90.891C1073.365,928.622,1076.606,926.927,1079.862,925.268z"/>
	<path d="M1091.223,919.651L916.368,807.955l-8.268,14.321l173.683,102.018C1084.917,922.714,1088.064,921.164,1091.223,919.651z"/>
	<path d="M1380.596,888.266l164.092-284.216l-11.264-19.51l-159.569,301.895C1376.104,887.03,1378.351,887.636,1380.596,888.266z"/>
	<path d="M1486.373,932.511l185.965-107.367l-8.266-14.316L1477.867,927.82C1480.713,929.356,1483.549,930.917,1486.373,932.511z"/>
	<path d="M1528.589,959.179l182.734-66.51l-8.467-14.665l-183.662,74.731C1522.346,954.845,1525.478,956.993,1528.589,959.179z"/>
	<path d="M1496.821,938.581l185.442-96.246l-8.269-14.321l-185.899,105.48C1491.016,935.158,1493.925,936.854,1496.821,938.581z"/>
	<path d="M1457.611,917.486l185.894-142.28l-8.447-14.631l-185.366,153.189C1452.339,914.98,1454.98,916.219,1457.611,917.486z"/>
	<path d="M1448.126,913.043l185.226-155.423l-8.579-14.859l-184.385,166.845C1442.974,910.729,1445.554,911.873,1448.126,913.043z"
		/>
	<path d="M1587.399,1007.377l176.836-23.061l-9.545-16.533l-177.684,29.96C1580.511,1000.901,1583.974,1004.116,1587.399,1007.377z"
		/>
	<path d="M1291.459,873.11c1.895,0.109,3.79,0.236,5.686,0.374l28.368-631.941l-29.87-29.989l-4.955,661.511L1291.459,873.11z"/>
	<path d="M1574.927,995.891l177.883-31.365l-9.235-15.995l-178.876,38.482C1568.145,989.921,1571.552,992.884,1574.927,995.891z"/>
	<path d="M1540.127,967.52l181.511-56.986l-8.605-14.904l-182.532,64.892C1533.734,962.815,1536.942,965.148,1540.127,967.52z"/>
	<polygon points="1626.17,1046.239 1799.986,1046.239 1789.198,1027.554 1614.107,1034.1 	"/>
	<path d="M1349.619,880.76l137.198-376.948l-14.541-25.187l-129.158,400.861C1345.286,879.895,1347.454,880.318,1349.619,880.76z"/>
	<path d="M1327.171,876.804l104.477-468.547l-18.828-32.61l-92.077,500.253C1322.886,876.182,1325.028,876.486,1327.171,876.804z"/>
	<path d="M1319.455,875.735l89.393-506.97l-20.938-36.265l-74.877,542.459C1315.173,875.201,1317.314,875.459,1319.455,875.735z"/>
	<path d="M1357.473,882.441l145.642-350.397l-13.494-23.372l-138.693,372.354C1353.112,881.477,1355.292,881.953,1357.473,882.441z"
		/>
	<path d="M1421.872,902.017l181.053-197.099l-9.188-15.915l-179.139,210.271C1417.027,900.165,1419.451,901.083,1421.872,902.017z"
		/>
	<polygon points="937.034,1030.561 937.176,1030.429 791.693,1023.898 780.993,1042.43 950.084,1043.697 	"/>
	<path d="M1413.148,898.75l178.717-212.987l-9.49-16.437l-176.37,226.892C1408.39,897.042,1410.771,897.887,1413.148,898.75z"/>
	<path d="M1388.776,890.656l168.811-264.265l-10.7-18.533l-164.935,280.798C1384.229,889.303,1386.504,889.97,1388.776,890.656z"/>
	<path d="M1121.166,1174.995L722.83,1479.875h41.842l364.415-301.158C1126.439,1177.5,1123.797,1176.263,1121.166,1174.995z"/>
	<path d="M1409.078,1202.615l212.211,277.261h26.467l-230.992-279.511C1414.202,1201.14,1411.641,1201.888,1409.078,1202.615z"/>
	<path d="M1383.422,1209.107l156.328,270.769h22.092l-171.171-272.438C1388.255,1208.017,1385.839,1208.571,1383.422,1209.107z"/>
	<path d="M1374.864,1210.924l139.589,268.952h20.986l-153.457-270.453C1379.609,1209.942,1377.236,1210.445,1374.864,1210.924z"/>
	<path d="M1446.307,1190.381l315.153,289.495h36.927l-343.624-292.749C1451.945,1188.238,1449.127,1189.326,1446.307,1190.381z"/>
	<path d="M1418.323,1199.895l234.932,279.98h28.521l-255.596-282.467C1423.562,1198.26,1420.943,1199.094,1418.323,1199.895z"/>
	<path d="M1319.749,1218.411l46.103,261.464h16.827l-56.359-261.978C1324.128,1218.086,1321.939,1218.259,1319.749,1218.411z"/>
	<path d="M1350.844,1215.082l96.377,264.794h18.612l-108.165-265.833C1355.394,1214.408,1353.118,1214.753,1350.844,1215.082z"/>
	<path d="M1311.905,1218.885l34.035,260.99h16.568l-44.071-261.369C1316.259,1218.652,1314.082,1218.774,1311.905,1218.885z"/>
	<path d="M1342.74,1216.17l82.791,263.705h18.02l-94.069-264.602C1347.235,1215.59,1344.987,1215.889,1342.74,1216.17z"/>
	<path d="M1585.067,1112.169l290.365,64.745l-14.734-25.52l-264.026-48.597C1592.854,1105.974,1588.984,1109.096,1585.067,1112.169z
		"/>
	<path d="M1599.01,1100.833l258.847,45.642l-13.657-23.655l-233.406-32.218C1606.926,1094.068,1602.996,1097.478,1599.01,1100.833z"
		/>
	<path d="M1456.486,1186.45l349.691,293.426h41.067l-382.068-296.994C1462.281,1184.099,1459.385,1185.293,1456.486,1186.45z"/>
	<path d="M1546.413,1139.788l389.415,141.736l-19.152-33.172l-359.406-115.801
		C1553.68,1135.007,1550.061,1137.421,1546.413,1139.788z"/>
	<polygon points="1641.747,1061.913 1641.601,1062.05 1813.572,1069.769 1802.204,1050.08 1628.697,1048.781 	"/>
	<path d="M2009.123,1468.997L1497,1168.185c-3.135,1.582-6.28,3.132-9.439,4.644l480.656,307.04L2009.123,1468.997z"/>
	<path d="M1508.645,1162.127c-3.226,1.731-6.468,3.425-9.723,5.084l513.348,296.382l-10.73-40.943L1508.645,1162.127z"/>
	<path d="M1533.694,1147.784l427.511,177.695l-21.333-36.95l-395.612-147.356
		C1540.762,1143.417,1537.241,1145.623,1533.694,1147.784z"/>
	<path d="M1190.004,1201.824l-177.618,278.052h22.294l162.147-276.052C1194.551,1203.176,1192.276,1202.51,1190.004,1201.824z"/>
	<path d="M1156.908,1190.464l-265.85,289.411h28.898l244.226-286.669C1161.753,1192.316,1159.329,1191.397,1156.908,1190.464z"/>
	<path d="M1081.954,1153.901l-507.512,263.405l-11.036,40.862l527.275-299.179
		C1087.76,1157.323,1084.849,1155.628,1081.954,1153.901z"/>
	<path d="M1092.403,1159.97l-525.891,303.623l40.824,11.179l493.575-310.112C1098.063,1163.126,1095.226,1161.564,1092.403,1159.97z
		"/>
	<path d="M1130.651,1179.437l-358.048,300.438h37.563l328.224-297C1135.804,1181.752,1133.224,1180.608,1130.651,1179.437z"/>
	<path d="M1050.183,1133.304l-407.231,148.22l-20.938,36.266l437.564-178.042
		C1056.426,1137.638,1053.295,1135.489,1050.183,1133.304z"/>
	<path d="M991.366,1085.104l-254.145,33.142l-13.494,23.371l278.033-46.88C998.255,1091.58,994.791,1088.365,991.366,1085.104z"/>
	<path d="M1003.839,1096.589l-282.916,49.886l-14.542,25.187l307.687-66.193C1010.623,1102.559,1007.215,1099.596,1003.839,1096.589
		z"/>
	<path d="M1038.643,1124.962l-372.889,117.07l-18.828,32.611l401.346-142.683
		C1045.038,1129.668,1041.829,1127.334,1038.643,1124.962z"/>
	<path d="M1251.609,1215.675l-58.911,264.2h16.877l48.462-263.296C1255.895,1216.295,1253.752,1215.993,1251.609,1215.675z"/>
	<path d="M1259.326,1216.743l-46.397,263.133h16.606l36.214-262.357C1263.608,1217.278,1261.468,1217.019,1259.326,1216.743z"/>
	<path d="M1290.955,1219.424c-0.004,0-0.816-0.002-1.565-0.005v260.456h16.211l-9.738-260.484
		C1294.227,1219.411,1292.591,1219.424,1290.955,1219.424z"/>
	<path d="M1165.631,1193.73l-240.105,286.146h26.786l220.463-283.616C1170.389,1195.438,1168.008,1194.593,1165.631,1193.73z"/>
	<path d="M1229.16,1211.718l-97.601,268.157h18.113l85.99-266.884C1233.494,1212.584,1231.328,1212.161,1229.16,1211.718z"/>
	<path d="M1287.33,1219.369c-1.897-0.11-3.795-0.236-5.694-0.374l-11.71,260.881h16.217l1.951-260.463L1287.33,1219.369z"/>
	<polygon points="952.609,1046.239 778.794,1046.239 767.53,1065.749 964.67,1058.379 	"/>
	<path d="M1221.307,1210.038l-112.158,269.837h18.722l99.98-268.42C1225.669,1211.002,1223.488,1210.525,1221.307,1210.038z"/>
	<path d="M1198.184,1204.213l-159.154,275.663h21.159l144.736-273.832C1202.676,1205.449,1200.429,1204.844,1198.184,1204.213z"/>
</g>
</svg>
