<?xml version="1.0"?>
<svg xmlns:rdf="http://www.w3.org/1999/02/22-rdf-syntax-ns#" xmlns="http://www.w3.org/2000/svg" xmlns:cc="http://creativecommons.org/ns#" xmlns:xlink="http://www.w3.org/1999/xlink" xmlns:dc="http://purl.org/dc/elements/1.1/" xmlns:svg="http://www.w3.org/2000/svg" id="svg2" viewBox="0 0 128 128" version="1.0">
  <defs id="defs4">
    <linearGradient id="linearGradient2320">
      <stop id="stop2322" stop-color="#6a3c1d" offset="0"/>
      <stop id="stop2324" stop-color="#8f5127" offset="1"/>
    </linearGradient>
    <linearGradient id="linearGradient3332">
      <stop id="stop3334" stop-color="#bb8f56" offset="0"/>
      <stop id="stop3336" stop-color="#d1af63" offset="1"/>
    </linearGradient>
    <linearGradient id="linearGradient2433" x1="57.946" xlink:href="#linearGradient2320" gradientUnits="userSpaceOnUse" x2="68.411" y1="51.755" y2="23.128"/>
    <linearGradient id="linearGradient2439" x1="47.762" xlink:href="#linearGradient2320" gradientUnits="userSpaceOnUse" x2="47.212" y1="45.135" y2="45.991"/>
    <linearGradient id="linearGradient3022" x1="72.958" xlink:href="#linearGradient2320" gradientUnits="userSpaceOnUse" x2="72.527" y1="49.691" y2="48.59"/>
    <linearGradient id="linearGradient3026" x1="37.396" xlink:href="#linearGradient2320" gradientUnits="userSpaceOnUse" x2="38.467" y1="68.221" y2="68.221"/>
    <linearGradient id="linearGradient3030" x1="37.396" xlink:href="#linearGradient2320" gradientUnits="userSpaceOnUse" y1="68.221" gradientTransform="matrix(.99980 -.020011 .020011 .99980 18.824 18.136)" x2="38.467" y2="68.221"/>
    <linearGradient id="linearGradient3034" x1="37.396" xlink:href="#linearGradient2320" gradientUnits="userSpaceOnUse" y1="68.221" gradientTransform="matrix(.99472 -.10265 .10265 .99472 45.336 11.563)" x2="38.467" y2="68.221"/>
    <linearGradient id="linearGradient3040" x1="48.125" xlink:href="#linearGradient2320" gradientUnits="userSpaceOnUse" x2="48.625" y1="50.719" y2="52.094"/>
    <linearGradient id="linearGradient3111" x1="66.231" xlink:href="#linearGradient2320" gradientUnits="userSpaceOnUse" x2="68.8" y1="68.832" y2="68.465"/>
    <linearGradient id="linearGradient3115" x1="45.928" xlink:href="#linearGradient2320" gradientUnits="userSpaceOnUse" x2="45.071" y1="85.681" y2="86.537"/>
    <linearGradient id="linearGradient3121" x1="68.127" xlink:href="#linearGradient2320" gradientUnits="userSpaceOnUse" x2="69.044" y1="92.285" y2="94.487"/>
    <linearGradient id="linearGradient3164" x1="58.281" xlink:href="#linearGradient2320" gradientUnits="userSpaceOnUse" x2="58.831" y1="68.527" y2="69.994"/>
    <linearGradient id="linearGradient3170" x1="76.627" xlink:href="#linearGradient2320" gradientUnits="userSpaceOnUse" x2="76.077" y1="71.065" y2="71.86"/>
    <linearGradient id="linearGradient3175" x1="81.813" xlink:href="#linearGradient2320" gradientUnits="userSpaceOnUse" x2="81.003" y1="55.202" y2="56.986"/>
    <linearGradient id="linearGradient3180" x1="82.193" xlink:href="#linearGradient2320" gradientUnits="userSpaceOnUse" x2="82.682" y1="64.766" y2="65.927"/>
    <linearGradient id="linearGradient3184" x1="46.845" xlink:href="#linearGradient2320" gradientUnits="userSpaceOnUse" x2="45.744" y1="62.87" y2="64.154"/>
    <linearGradient id="linearGradient3188" x1="42.25" xlink:href="#linearGradient2320" gradientUnits="userSpaceOnUse" x2="43.222" y1="49.003" y2="49.975"/>
    <linearGradient id="linearGradient3192" x1="51.84" xlink:href="#linearGradient2320" gradientUnits="userSpaceOnUse" x2="51.707" y1="59.344" y2="60.272"/>
    <linearGradient id="linearGradient3196" x1="47.73" xlink:href="#linearGradient2320" gradientUnits="userSpaceOnUse" x2="47.862" y1="54.129" y2="55.19"/>
    <linearGradient id="linearGradient3200" x1="49.439" xlink:href="#linearGradient2320" gradientUnits="userSpaceOnUse" x2="48.768" y1="56.45" y2="57.245"/>
    <linearGradient id="linearGradient3205" x1="46.757" xlink:href="#linearGradient2320" gradientUnits="userSpaceOnUse" x2="48.039" y1="65.355" y2="66.46"/>
    <linearGradient id="linearGradient3209" x1="46.669" xlink:href="#linearGradient2320" gradientUnits="userSpaceOnUse" x2="46.183" y1="73.067" y2="74.525"/>
    <linearGradient id="linearGradient3213" x1="48.879" xlink:href="#linearGradient2320" gradientUnits="userSpaceOnUse" x2="49.011" y1="76.204" y2="77.265"/>
    <linearGradient id="linearGradient3217" x1="73.186" xlink:href="#linearGradient2320" gradientUnits="userSpaceOnUse" x2="72.788" y1="58.284" y2="58.991"/>
    <linearGradient id="linearGradient3221" x1="72.567" xlink:href="#linearGradient2320" gradientUnits="userSpaceOnUse" x2="71.992" y1="59.61" y2="60.096"/>
    <linearGradient id="linearGradient3225" x1="72.036" xlink:href="#linearGradient2320" gradientUnits="userSpaceOnUse" x2="73.208" y1="59.085" y2="60.013"/>
    <linearGradient id="linearGradient3229" x1="84.035" xlink:href="#linearGradient2320" gradientUnits="userSpaceOnUse" x2="83.527" y1="71.895" y2="73.045"/>
    <linearGradient id="linearGradient3233" x1="71.992" xlink:href="#linearGradient2320" gradientUnits="userSpaceOnUse" x2="73.627" y1="80.27" y2="81.154"/>
    <linearGradient id="linearGradient3237" x1="74.467" xlink:href="#linearGradient2320" gradientUnits="userSpaceOnUse" x2="74.467" y1="78.944" y2="80.049"/>
    <linearGradient id="linearGradient3243" x1="69.827" xlink:href="#linearGradient3332" gradientUnits="userSpaceOnUse" x2="70.622" y1="79.475" y2="79.386"/>
    <linearGradient id="linearGradient3247" x1="79.284" xlink:href="#linearGradient3332" gradientUnits="userSpaceOnUse" x2="80.478" y1="77.442" y2="77"/>
    <linearGradient id="linearGradient3251" x1="71.918" xlink:href="#linearGradient3332" gradientUnits="userSpaceOnUse" x2="72.133" y1="49.416" y2="49.997"/>
    <linearGradient id="linearGradient3255" x1="71.918" xlink:href="#linearGradient3332" gradientUnits="userSpaceOnUse" y1="49.416" gradientTransform="translate(.33635 3.2106)" x2="72.133" y2="49.997"/>
    <linearGradient id="linearGradient3259" x1="71.918" xlink:href="#linearGradient3332" gradientUnits="userSpaceOnUse" y1="49.416" gradientTransform="translate(.42809 6.6048)" x2="72.133" y2="49.997"/>
    <linearGradient id="linearGradient3263" x1="71.918" xlink:href="#linearGradient3332" gradientUnits="userSpaceOnUse" y1="49.416" gradientTransform="translate(.88675 10.029)" x2="72.133" y2="49.997"/>
    <linearGradient id="linearGradient3267" x1="71.918" xlink:href="#linearGradient3332" gradientUnits="userSpaceOnUse" y1="49.416" gradientTransform="translate(1.2231 13.852)" x2="72.133" y2="49.997"/>
    <linearGradient id="linearGradient3271" x1="71.918" xlink:href="#linearGradient3332" gradientUnits="userSpaceOnUse" y1="49.416" gradientTransform="translate(1.4677 17.001)" x2="72.133" y2="49.997"/>
    <linearGradient id="linearGradient3275" x1="71.918" xlink:href="#linearGradient3332" gradientUnits="userSpaceOnUse" y1="49.416" gradientTransform="translate(1.7735 20.395)" x2="72.133" y2="49.997"/>
    <linearGradient id="linearGradient3279" x1="71.918" xlink:href="#linearGradient3332" gradientUnits="userSpaceOnUse" y1="49.416" gradientTransform="translate(2.3545 23.973)" x2="72.133" y2="49.997"/>
    <linearGradient id="linearGradient3283" x1="71.918" xlink:href="#linearGradient3332" gradientUnits="userSpaceOnUse" y1="49.416" gradientTransform="translate(2.8437 27.367)" x2="72.133" y2="49.997"/>
    <linearGradient id="linearGradient3287" x1="71.918" xlink:href="#linearGradient3332" gradientUnits="userSpaceOnUse" y1="49.416" gradientTransform="translate(3.4247 35.164)" x2="72.133" y2="49.997"/>
    <linearGradient id="linearGradient3293" x1="71.918" xlink:href="#linearGradient3332" gradientUnits="userSpaceOnUse" y1="49.416" gradientTransform="translate(3.8528 38.497)" x2="72.133" y2="49.997"/>
    <linearGradient id="linearGradient3297" x1="71.918" xlink:href="#linearGradient3332" gradientUnits="userSpaceOnUse" y1="49.416" gradientTransform="translate(4.1891 42.228)" x2="72.133" y2="49.997"/>
    <linearGradient id="linearGradient3301" x1="71.918" xlink:href="#linearGradient3332" gradientUnits="userSpaceOnUse" y1="49.416" gradientTransform="translate(4.8313 46.233)" x2="72.133" y2="49.997"/>
    <linearGradient id="linearGradient3305" x1="71.918" xlink:href="#linearGradient3332" gradientUnits="userSpaceOnUse" y1="49.416" gradientTransform="translate(5.1676 50.3)" x2="72.133" y2="49.997"/>
    <linearGradient id="linearGradient3309" x1="71.918" xlink:href="#linearGradient3332" gradientUnits="userSpaceOnUse" y1="49.416" gradientTransform="translate(5.6263 53.908)" x2="72.133" y2="49.997"/>
    <linearGradient id="linearGradient3313" x1="71.918" xlink:href="#linearGradient3332" gradientUnits="userSpaceOnUse" y1="49.416" gradientTransform="translate(5.9015 57.486)" x2="72.133" y2="49.997"/>
    <filter id="filter3439">
      <feGaussianBlur id="feGaussianBlur3441" stdDeviation="1.1828996"/>
    </filter>
    <linearGradient id="linearGradient2414" x1="71.918" xlink:href="#linearGradient3332" gradientUnits="userSpaceOnUse" y1="49.416" gradientTransform="translate(3.0816 31.518)" x2="72.133" y2="49.997"/>
  </defs>
  <g id="layer2" fill-rule="evenodd">
    <path id="path3318" filter="url(#filter3439)" fill-opacity=".66667" d="m57.35 58.088c-9.531 1.869-18.894 4.475-28.321 6.79 0.835 0.534 2.632 2.39 0.749 0.813-1.94-1.85-2.338 1.236 0.043 1.326 3.193 0.062 1.447 4.397 2.208 6.468 0.622 7.781 1.243 15.561 1.865 23.341 3.795 1.69 1.65-3.792 1.764-5.73-0.492-1.971-0.249-2.91 1.625-1.558 6.041 2.811 8.968 5.622 15.009 8.433 0.923 2.519 2.473 13.479 4.847 14.769 2.778-0.47-2.75-11.26-2.375-13.241-0.075-1.08-0.812-3.889 0.145-1.484 3.579-0.705 8.528-0.63 12.173-1.409 1.635 2.843 2.424 10.994 4.796 12.564 0.922-2.28 6.099-3.03 8.819-3.93 0.972-0.79 1.627 3.63 2.134 1.54-1.296-3.13-3.283-9.89-4.579-13.02 2.264-0.124 6.434-2.557 8.009-1.499 1.288 2.738 2.123 6.91 4.229 8.649 3.183-0.02-0.388-4.266-0.323-6.082-2.689-8.365-5.379-16.73-8.068-25.096-4.287 0.555 5.09-0.015 2.022-1.633-2.239-1.088-4.405-2.444-6.936-2.75-1.541-0.544-2.216-1.504-4.338-1.471-2.414-2.067-5.613-1.996-8.381-3.21-2.12-0.531-4.235-1.185-5.312-2.424-0.598-0.02-1.245 0.138-1.804-0.156zm-21.412 10.531c1.359 0.298 1.659 1.189 1.984 1.522 2.938 0.376-1.159 1.649-1.798-0.345-0.706-0.559-2.167-1.249-0.186-1.177zm-2.517 0.226c1.193 1.402 5.37 2.843 2.123 4.185-2.511 2.918-1.556-2.186-2.089-3.848l-0.034-0.337zm46.432 1.371c-2.73 0.685-5.204 4.404-7.864 3.39-1.611-3.103 4.282-1.862 6.148-3.018l1.716-0.372zm-39.975 0.436c1.493-0.064 6.193 2.349 2.405 2.424-1.418 1.122-5.457-1.326-2.405-2.424zm40.723 0.177c0.522 2.72 2.593 6.358 2.144 8.5-2.734 0.124-5.826 2.383-8.186 0.563-1.739-2.511 2.828-0.897 4.346-0.941 1.074 0.423 5.959 0.22 2.626-0.381-2.618-0.455-5.779-0.293-8.045-1.223-0.985-1.263-0.836-2.614 0.88-1.339 2.658 1.19 5.283 2.687 8.278 2.665-0.456-0.659-3.928-1.784-5.635-2.655-2.045-0.652-3.256-2.039-0.605-2.761 1.399-0.809 2.798-1.619 4.197-2.428zm-10.867 0.661c-1.835 0.386-5.872 1.339-6.321 1.346 2.107-0.449 4.214-0.897 6.321-1.346zm-23.369 0.807c1.269 0.36 3.875 2.165 3.036 2.327 0.103-1.365-2.183-1.547-3.036-2.327zm23.757 0.032c1.143 1.687-2.311-0.452 0 0zm-32.372 0.016c1.477 0.807 2.058 1.834-0.193 1.785-1.157 0.105-5.15 1.488-2.033 0.061 0.724-0.632 1.471-1.245 2.226-1.846zm29.829 0.548c0.319 0.594 2.388 1.004 0.088 1.108-1.221 0.021-5.501 1.907-3.747-0.454 1.214 0.135 2.45-0.482 3.659-0.654zm-21.164 0.274c1.275 0.497 3.187 2.091 0.601 1.742-1.296-0.218-5 0.817-4.703-0.592 1.319-0.416 3.023-0.464 4.102-1.15zm15.26 0.049c-3.972 0.868-7.91 2.074-11.983 2.321 4.052-0.426 7.992-1.529 11.983-2.321zm0.275 0.903c-2.444-0.186 0.017 3.186-2.667 1.845-1.278-0.186-5.422-0.351-2.136-0.793 1.601-0.35 3.202-0.7 4.803-1.052zm8.239 0.097c2.464 1.429-2.477 1.383-3.515 1.832-1.14 0.818-4.169 0.089-1.847-0.803 1.798-0.28 3.573-0.695 5.362-1.029zm-29.494 0.5c-0.522 1.21-5.629-0.337-6.478 1.097-0.239-0.874 3.608-0.471 5.006-0.754 0.499-0.073 0.994-0.183 1.472-0.343zm7.82 0.5c0.669 2.594-3.785 3.054-4.863 0.75 0.82-0.827 4.304 0.52 4.863-0.75zm6.88 0.338c-1.954 0.264-3.444 0.84-2.618 2.993-1.306-0.165-5.963-0.13-2.891-1.544 1.548-1.254 3.675-0.661 5.509-1.449zm-13.392 0.226c0.999 0.714 2.384 1.804 0.195 1.13-1.761-0.337-5.57-0.832-6.042-1.069 1.949-0.021 3.898-0.041 5.847-0.061zm-7.452 0.081l0.356 0.148-0.356-0.148zm19.866 0.113c2.237 0.86 6.415-0.523 7.115 2.12 0.657 1.573 0.757 2.644-1.225 1.835-2.49-0.654-6.433 0.119-5.833-3.574l-0.057-0.381zm17.198 0.048c1.255 1.706-3.694 1.328-0.474 0.303l0.474-0.303zm-1.999 0.161c-1.087 1.439-4.861 0.614-1.54 0.314 0.507-0.132 1.028-0.201 1.54-0.314zm-34.03 0.162c3.106 0.909 7.285 0.381 9.723 2.271-1.666 2.625-4.116 0.122-6.145-0.585-1.193-0.562-2.385-1.124-3.578-1.686zm-1.332 0.838c2.402 1.298 6.383 2.554 7.804 3.878-2.03 2.838-3.914-1.371-5.7-2.421-0.649-0.563-1.286-1.151-2.104-1.457zm30.282 0c0.202 0.072-0.352 0.084 0 0zm0.256 0.032c1.47-0.125 3.4 0.871 0.928 0.272l-0.319-0.118-0.609-0.154zm-0.123 0.629c1.6-0.292 0.727 1.017 0.003 0.011l-0.003-0.011zm5.647 0.113c1.375-0.25 3.453 1.306 1.124 0.573-0.495-0.169-2.941-0.36-1.124-0.573zm-35.957 0.21c1.489 1.65 4.392 3.352 4.996 4.971-1.351 0.628-3.551 3.266-4.246 2.641-0.245-2.538-0.501-5.075-0.75-7.612zm13.573 0.21c2.595 0.448 6.02 0.097 5.364 3.673-1.686 1.923-4.259-2.316-6.079-3.19l0.357-0.242 0.358-0.241zm19.982 0.064c1.152 0.309 4.951 0.61 1.945 0.931-1.293 0.19-6.218 1.601-3.129-0.262 0.441-0.138 0.74-0.572 1.184-0.669zm-2.983 0.242l0.086 0.211-0.086-0.211zm-18.426 0.677c1.116 1.195 4.411 2.824 4.086 3.732-1.646-0.418-5.508-1.766-5.464-2.776 0.459-0.319 0.919-0.637 1.378-0.956zm8.442 0.178c1.894 0.391 5.981 0.86 6.662 1.135-2.508-0.095-7.322 3.451-6.662-1.135zm18.062 0c0.383 1.988-3.82 1.194-5.239 1.952-1.557 0.235-2.201-1.106-0.196-0.896 1.812-0.352 3.623-0.704 5.435-1.056zm10.49 0.725c0.027 0.133-0.25-0.054 0 0zm-1.017 0.226c-1.252 0.923-5.118 3.418-4.82 0.98 1.624-0.189 3.212-0.674 4.82-0.98zm-20.258 0.113c-2.093 0.989-5.115 3.541-6.639 3.682-0.249-2.562 4.304-1.083 5.603-3.092 0.345-0.196 0.69-0.393 1.036-0.59zm21.448 0.21c0.812 2.822 1.384 7.182 1.81 9.16-1.119-0.559-2.979-0.299-0.631-0.303-2.873-1.462-5.06-2.853-7.998-4.229 1.674-3.185 4.344 1.149 6.156 2.142 0.597 0.819 3.374 3.156 1.786 0.85-1.602-1.696-4.935-3.694-4.841-5.306 1.239-0.771 2.479-1.543 3.718-2.314zm-17.912 0.129l0.076 0.437-0.076-0.437zm7.858 0.226c-1.012 0.451-4.984 1.295-4.116 0.785 1.372-0.262 2.744-0.524 4.116-0.785zm-30.101 0.274c1.114 0.844 6.637 2.173 3.022 2.497-1.729 0.592-5.042 1.293-4.985-1.142 0.655-0.452 1.309-0.904 1.963-1.355zm18.961 0.113c1.81 2.904-2.268 2.333-4.006 3.012-3.656 1.052 1.461-1.344 2.574-2.166 0.477-0.282 0.954-0.564 1.432-0.846zm13.508 0.354c1.311 0.456 2.202 2.239 0.233 1.995-0.055-0.529-1.44-2.098-0.233-1.995zm-9.911 0.129l0.065 0.191-0.065-0.191zm0.956 0.404c1.092 0.581-2.007 0.231 0 0zm7.278 0.451c2.034 2.608-4.236 0.303-1.015 0.202l0.508-0.101 0.507-0.101zm-33.919 0.71c3.339 2.082-2.11 1.782-3.542 2.435 1.181-0.812 2.361-1.623 3.542-2.435zm13.134 0.048c0.45 0.852-0.746-0.156 0 0zm16.545 0.065c1.288 0.449 2.67 1.194 0.342 1.233-1.14 0.292-4.322 1.136-3.215-0.776 0.975-0.038 1.915-0.287 2.873-0.457zm-17.771 0.209c1.591 0.973 1.089 0.916-0.319 0.073l0.319-0.073zm-2.236 0.533c1.108 0.652 5.174 1.883 1.845 1.669-2.329-0.302-5.998 1.106-7.5-0.342 1.856-0.508 3.777-0.868 5.655-1.327zm13.292 0.209c0.779 1.514 0.715 2.883-1.357 2.094-1.531-0.311-5.437-0.457-5.464-0.612 2.273-0.494 4.547-0.988 6.821-1.482zm-7.381 0.436l-0.182 0.042 0.182-0.042zm17.225 0.032c1.778 1.153-2.734 1.731-3.676 1.872-1.534 1.243-2.834-1.231-0.784-1.043 1.487-0.276 2.973-0.553 4.46-0.829zm-19.459 0.048c0.498 3.823-2.117 7.645-1.619 11.467-1.604-0.288 0.905-0.417-0.829-1.403-2.974-2.742-2.834-5.484-5.807-8.225 2.64-0.365 6.451 0.213 8.362-0.741-0.061-0.362-0.107-0.729-0.107-1.098zm-10.637 0.871c1.012 1.016-4.028 0.424-1.184 0.271 0.397-0.079 0.792-0.167 1.184-0.271zm-7.854 0.42l-0.008 0.591 0.008-0.591zm40.517 0.08c2.456 2.839-3.181 1.457-2.864 1.047 0.837-0.602 1.831-0.985 2.864-1.047zm-19.761 0.258c2.642 0.778 6.785-0.205 8.442 1.73 0.734 1.822 1.25 3.205-1.097 3.827-1.906 0.783-7.959 3.782-9.184 3.107-0.425-2.888 2.264-5.776 1.839-8.664zm-11.82 0.274c3.177 2.952 3.241 5.903 6.418 8.854-6.144-2.901-9.189-5.771-15.323-8.692 2.185 0.626 4.657-0.236 6.967-0.075l1.938-0.087zm33.347 0.016c1.011 0.559 4.385 1.791 3.899 1.924-1.622-0.41-3.66 0.295-3.899-1.924zm-6.525 0.339c-1.19 0.63-1.102-0.084 0 0zm-2.879 0.758c2.723-0.513 0.121 2.074 0 0zm3.175 0.403c1.675 0.575 4.834-0.044 5.545 1.252-2.509 0.544-5.112 0.94-7.663 1.425-0.948-1.251 1.536-1.969 2.118-2.677zm7.209 0.887c2.202 0.318 5.629 0.711 6.598 1.084-2.416-0.055-5.705 2.984-6.353-0.491l-0.122-0.296-0.123-0.297zm-1.16 1.065c0.819 2.242-5.707 2.304-7.138 3.116-1.172 0.839-2.109-1.136 0.177-1.922 2.33-0.332 4.639-0.805 6.961-1.194zm-10.005 0.596c1.078 1.523 1.793 3.981-0.965 3.655-2.567 0.577-8.248 1.155-10.815 1.732 2.889-1.795 8.89-3.593 11.78-5.387zm8.141 1.918c-2.197 0.384-5.625 1.778-7.168 1.75 2.261-0.616 4.857-1.246 7.168-1.75zm1.274 1.048c-0.977 0.522-4.166 0.816-1.429 0.327 0.477-0.107 0.952-0.22 1.429-0.327zm0.315 0.791c1.335 2.874-3.539 2.63-5.158 3.58-1.352 1.088-4.327-1.199-2.228-2.002 2.417-0.261 4.981-1.191 7.386-1.578zm1.174 3.134c1.36 2.86-3.876 2.1-5.472 3.04-1.346 1.08-4.144-0.7-2.038-1.473 2.457-0.258 5.064-1.184 7.51-1.567zm0.998 2.6c1.1 2.54-3.907 1.26-5.387 2.14-1.184 0.73-4.157 0.49-2.252-0.9 2.551-0.15 5.095-0.87 7.639-1.24zm1.446 2.06c1.027 2.38-4.222 3.27-5.627 4.09-1.61-0.04-4.037-0.52-3.347-3.02 3.287-0.45 6.215-0.63 8.974-1.07z"/>
    <path id="path2431" fill="url(#linearGradient2433)" d="m58.003 54.4l-3.329 0.728 0.764-3.063-2.941-3.287-1.643 0.173-1.47-2.594-4.238-2.249 0.086-0.692-1.989-3.286-1.297 0.432-3.632-2.94-1.644-3.2s28.969-13.691 29.834-13.172 2.339 0.545 2.339 0.545l-0.259 1.643 4.238 2.767 1.037 0.26 1.903 2.249 1.643-0.173 2.595 2.594-0.259 0.865 3.978 1.557-0.605 0.951 4.583 2.335 3.633 4.238-33.327 13.319z"/>
    <path id="path2437" d="m36.326 34.31l-1.162 1.957 1.713 2.202 1.345 0.55 3.241 2.813 1.346-0.183 1.712 1.773-0.612 0.857 4.832 2.629 1.467 2.752 1.713 0.184 2.262 3.057-0.244 2.752 3.914 0.918 0.367-0.306-0.428-1.651-2.813 0.489-0.184-0.306 0.489-2.752-2.813-3.302-1.59 0.183-1.406-2.69-4.098-2.141 0.122-0.55-2.201-3.547-1.529 0.428-3.302-2.875h-0.367l-1.774-3.241z" fill="url(#linearGradient2439)"/>
    <path id="path2441" fill-opacity=".15686" d="m36.326 34.31l-1.162 1.957 1.713 2.202 1.345 0.55 3.241 2.813 1.346-0.183 1.712 1.773-0.612 0.857 4.832 2.629 1.467 2.752 1.713 0.184 2.262 3.057-0.244 2.752 3.914 0.918 0.367-0.306-0.428-1.651-2.813 0.489-0.184-0.306 0.489-2.752-2.813-3.302-1.59 0.183-1.406-2.69-4.098-2.141 0.122-0.55-2.201-3.547-1.529 0.428-3.302-2.875h-0.367l-1.774-3.241z"/>
    <path id="path3020" d="m57.914 54.614l33.635-13.699s0.612 1.712 0.367 1.651c-0.244-0.061-33.88 13.699-33.88 13.699l-0.183-1.284 0.061-0.367z" fill="url(#linearGradient3022)"/>
    <path id="path3024" d="m38.65 39.325l-3.547 56.997 0.734 0.795 1.59-0.612 2.874-55.957-1.651-1.223z" fill="url(#linearGradient3026)"/>
    <path id="path3162" fill="url(#linearGradient3164)" d="m38.528 76.079l28.376-11.436-3.608 3.608-24.034 10.274-0.857-0.856 0.123-1.59z"/>
    <path id="path3190" d="m41.189 55.654l25.633 8.574-0.045 0.486-0.795 0.177-25.368-8.353-0.53-0.884h1.105z" fill="url(#linearGradient3192)"/>
    <path id="path3028" fill="url(#linearGradient3030)" d="m57.886 56.558l-2.039 57.182 0.75 0.78 1.577-0.65 1.632-58.08-1.92 0.768z"/>
    <path id="path3032" fill="url(#linearGradient3034)" d="m86.954 44.664l3.249 59.416 1.056 0.22 1.213-0.58-3.729-59.918-1.789 0.862z"/>
    <path id="path3038" d="m39.812 53.75l10.25-4.125 2 0.187 0.438 0.938-8.062 3.562-4.938 0.25 0.312-0.812z" fill="url(#linearGradient3040)"/>
    <path id="path3109" fill="url(#linearGradient3111)" d="m66.231 53.024l1.284 31.862 0.979 0.428h1.406l-1.895-32.963-1.774 0.673z"/>
    <path id="path3113" d="m38.344 77.73l18.286 18.408-0.245 2.385-18.163-18.041 0.122-2.752z" fill="url(#linearGradient3115)"/>
    <path id="path3119" d="m58.892 96.199l30.272-12.598 0.061 2.385-30.516 12.782 0.183-2.569z" fill="url(#linearGradient3121)"/>
    <path id="path3168" fill="url(#linearGradient3170)" d="m70.145 65.499l8.501 7.156 10.029 9.601-3.853-0.795-10.885-10.519-3.758-3.36-0.034-2.083z"/>
    <path id="path3173" fill="url(#linearGradient3175)" d="m87.88 61.219c-4.285-4.028-8.176-8.45-12.906-12.033l-1.691 0.908 5.389 4.895 5.855 5.516 3.353 0.714z"/>
    <path id="path3227" d="m79.152 63.079l9.767 17.191v1.945l-1.459-1.238-8.176-15.291-0.132-2.607z" fill="url(#linearGradient3229)"/>
    <path id="path3177" d="m59.137 73.755l28.865-11.558 0.061 2.018-28.865 11.681-0.061-2.141z" fill="url(#linearGradient3180)"/>
    <path id="path3203" d="m38.582 75.63l15.954-19.887 1.988 0.486-16.661 19.578-1.414 0.486 0.133-0.663z" fill="url(#linearGradient3205)"/>
    <path id="path3182" d="m39.629 55.348l17.673 17.796-0.183 2.507-17.796-17.49 0.306-2.813z" fill="url(#linearGradient3184)"/>
    <path id="path3186" d="m39.686 52.561l5.746-7.381 0.928 0.398-5.79 7.778-1.06 0.442 0.176-1.237z" fill="url(#linearGradient3188)"/>
    <path id="path3198" d="m41.498 41.645l15.91 29.963-0.044 1.326-0.751-0.663-8.132-14.849-8.353-15.556 0.177-1.105 1.193 0.884z" fill="url(#linearGradient3200)"/>
    <path id="path3194" fill="url(#linearGradient3196)" d="m39.731 54.638l14.451-0.884-0.221 1.105-0.088 0.53-13.966 0.309-0.309-0.397 0.133-0.663z"/>
    <path id="path3211" d="m38.537 77l18.65-1.591-0.044 1.193-18.252 1.547-0.486-0.398 0.132-0.751z" fill="url(#linearGradient3213)"/>
    <path id="path3207" d="m40.393 59.322l15.999 35.002 0.044 1.37-1.237-0.928-8.928-19.711-7.071-15.158 0.177-1.68 1.016 1.105z" fill="url(#linearGradient3209)"/>
    <path id="path3215" fill="url(#linearGradient3217)" d="m60.988 55.035l11.888 2.961 3.233 0.412 4.369 1.179 7.292 1.68-0.045 0.839-0.839 0.221-9.856-2.077-5.038-1.458-5.789-1.326-6.718-1.635 1.503-0.796z"/>
    <path id="path3219" fill="url(#linearGradient3221)" d="m69.783 58.217l1.905 1.137 2.353 0.585 3.476 1.416-1.326 0.619-6.585-2.475-0.044-1.061 0.221-0.221z"/>
    <path id="path3223" d="m59.441 72.36l15.512-16.043 11.005-11.358s1.105-0.619 1.105-0.442 0.088 1.282 0.088 1.282l-10.474 10.518-6.718 7.336-1.723 1.547-7.999 8.176-0.973 0.309 0.177-1.325z" fill="url(#linearGradient3225)"/>
    <path id="path3231" d="m58.69 94.854l13.656-14.54 1.591-1.988 4.508-4.906 8.662-8.883s0.972-0.398 0.972-0.221v0.972l-9.104 9.767-3.315 3.801-2.253 2.298-1.503 2.121-2.254 2.078-9.899 10.606-1.061 0.31v-1.415z" fill="url(#linearGradient3233)"/>
    <path id="path3235" d="m60.104 75.674l16.529 3.536 12.241 3.182 0.266 0.972-0.31 0.353-11.092-2.386-6.32-1.679-12.286-2.785 0.088-1.016 0.884-0.177z" fill="url(#linearGradient3237)"/>
    <path id="path3241" d="m68.855 47.92l1.37 19.18 1.767 25.898 1.238 18.292-0.398 0.49h-1.105l-0.221-0.57-1.281-20.775-1.989-29.964-0.751-11.844 0.486-0.751 0.884 0.044z" fill="url(#linearGradient3243)"/>
    <path id="path3245" d="m77.119 45.71l3.182 28.329 3.712 33.761-0.353 0.49-0.487 0.4-0.883-0.27-1.591-15.422-1.989-19.799-2.387-23.865-0.442-3.403 0.442-0.574 0.486-0.044 0.31 0.397z" fill="url(#linearGradient3247)"/>
    <path id="path3249" fill="url(#linearGradient3251)" d="m69.105 50.516l7.584-2.966 0.244 0.551-0.092 0.458-7.736 3.272v-1.315z"/>
    <path id="path3253" fill="url(#linearGradient3255)" d="m69.289 53.635l7.736-2.874 0.245 0.55-0.276 0.795-7.675 2.844-0.03-1.315z"/>
    <path id="path3257" fill="url(#linearGradient3259)" d="m69.381 57.029l7.736-2.874 0.244 0.551-0.275 0.795-7.675 2.843-0.03-1.315z"/>
    <path id="path3261" fill="url(#linearGradient3263)" d="m69.686 60.454l7.889-2.874 0.245 0.55-0.275 0.795-7.675 2.844-0.184-1.315z"/>
    <path id="path3265" fill="url(#linearGradient3267)" d="m69.992 64.154l7.889-2.874 0.275 0.672-0.275 0.795-7.828 2.814-0.061-1.407z"/>
    <path id="path3269" fill="url(#linearGradient3271)" d="m70.237 67.303l7.889-2.874 0.275 0.673-0.254 0.644-7.849 2.964-0.061-1.407z"/>
    <path id="path3273" fill="url(#linearGradient3275)" d="m70.39 70.759l8.042-2.936 0.275 0.673-0.275 0.795-7.828 2.813-0.214-1.345z"/>
    <path id="path3277" fill="url(#linearGradient3279)" d="m70.604 74.459l8.439-2.905 0.245 0.52-0.276 0.795-8.317 2.874-0.091-1.284z"/>
    <path id="path3281" fill="url(#linearGradient3283)" d="m70.971 77.883l8.561-2.935 0.245 0.52-0.275 0.795-8.317 2.874-0.214-1.254z"/>
    <path id="path3285" fill="url(#linearGradient3287)" d="m71.49 85.558l8.532-2.874 0.336 0.581-0.275 0.795-8.593 2.844v-1.346z"/>
    <path id="path3289" fill="url(#linearGradient3283)" d="m70.971 77.883l8.323-2.827 0.483 0.412-0.362 0.643-8.23 3.026-0.214-1.254z"/>
    <path id="path3291" fill="url(#linearGradient3293)" d="m71.674 89.014l8.867-2.936 0.245 0.52-0.336 0.673-8.623 3.057-0.153-1.314z"/>
    <path id="path3295" fill="url(#linearGradient3297)" d="m71.98 92.836l8.898-3.027 0.244 0.519-0.275 0.795-8.806 2.997-0.061-1.284z"/>
    <path id="path3299" fill="url(#linearGradient3301)" d="m72.255 96.933l9.265-3.119 0.244 0.52-0.275 0.795-9.142 3.027-0.092-1.223z"/>
    <path id="path3303" fill="url(#linearGradient3305)" d="m72.438 100.97l9.418-3.089 0.245 0.52-0.275 0.795-9.265 3.114-0.123-1.34z"/>
    <path id="path3307" fill="url(#linearGradient3309)" d="m72.805 104.76l9.51-3.27 0.244 0.52-0.275 0.79-9.509 3.28 0.03-1.32z"/>
    <path id="path3311" fill="url(#linearGradient3313)" d="m73.05 108.28l9.54-3.21 0.245 0.52-0.276 0.79-9.479 3.21-0.03-1.31z"/>
    <path id="path2412" fill="url(#linearGradient2414)" d="m71.208 82.035l8.562-2.936 0.245 0.52-0.275 0.795-8.318 2.874-0.214-1.253z"/>
  </g>
  <g id="layer1">
    <path id="path2308" fill-rule="evenodd" d="m66.188 20.938l-30.063 13.25-1.187 2.062 1.937 2.281 1.563 0.781 0.093 0.094-3.687 57.282c0.18 0.599 1.25 1.069 2.812 0.156l0.032-0.5 0.781-15.5 17.687 17.906-0.594 15.63c0.893 0.15 1.55 0.71 3.063-0.22l0.344-15.285 11.312-4.781 1.157 17.716c0.746 0.46 1.402 0.23 2.031-0.37l-0.125-1.75 8.562-3 0.219 1.9c0.609 0.2 1.351 0.67 2.031-0.62l-2.062-18.876 6.937-2.938 0.969 17.964c1.004 0.83 1.847 0.21 2.688-0.43l-3.876-59.721 3.219-1.344-0.156-1.469-3.969-4.437-4.531-2.281 0.5-1-3.813-1.532 0.188-0.906-2.906-2.531-1.313 0.062-1.843-2.437-1.157-0.032-4.219-2.843 0.282-1.344-2.906-0.937zm-0.063 0.343l2.656 0.688-0.375 1.093-30.218 14.313-1.157-2.687 29.094-13.407zm2.281 2.313l4.156 2.625-30.718 14.062-2.406-2.125-0.626-0.594 29.594-13.968zm5.094 2.875l1.969 2.093-29.844 14.813-1.969-3.187 29.844-13.719zm3.312 2.312l3.094 2.313-0.406 0.75-30.156 14.094-3.656-1.907 30-15.093 1.124-0.157zm2.719 3.688l3.969 1.062-0.719 1.031-31.625 14.313-1.281-2.437 29.656-13.969zm-43.25 2.219l1.5 3.031 0.094 0.062v0.907c-0.263-0.055-0.53-0.105-0.781-0.313l-1.625-2.219 0.812-1.468zm47.063 0.343l3.812 1.719-32.062 14.812-2.156-2.781 30.406-13.75zm4.375 2.281l3.062 3.438-13.312 5.5-0.094-0.812c-0.387-0.19-0.72-0.32-1.031-0.188-0.172 0.027-0.356 0.184-0.563 0.688l0.094 0.968-6.719 2.75-0.156-1.937c-0.828-0.153-1.123-0.137-1.719 0.875l0.125 1.781-9.156 3.781-3.344 0.594 0.906-2.844c2.259-1.036 31.392-14.362 31.907-14.594zm-49.563 0.594l0.719 0.375 2.594 2.25-0.125 0.781c-1.009-0.858-1.772-1.483-2.813-2.343-0.096-0.08-0.182-0.116-0.281-0.157l-0.094-0.906zm0.719 1.782l1.187 1.093-2.968 55.438c-0.904 0.971-1.336 0.529-1.75 0.031l3.531-56.562zm4.313 0.75l1.75 2.624 0.031 0.688-0.375 0.656c-0.098-0.073-0.199-0.141-0.282-0.218-0.159-0.152 0.598-0.726 0.438-0.876-0.64-0.596-1.007-1.237-1.625-1.812l-0.031-1.031 0.094-0.031zm-0.5 0.093l-0.063 0.781c-0.331 0.04-0.758 0.19-1 0.157l0.156-0.781 0.907-0.157zm-2.25 0.594l0.968 0.875 6.375 11.969-0.906 0.031-6.469-12.062 0.032-0.813zm51 0.187l0.093 1.094-13.875 5.594-0.125-1.094 13.907-5.594zm-48.594 0.438l1.437 1.562-0.562 0.969 1.593 0.907-1.062 1.374-2.469-4.624 1.063-0.188zm-2.469 0.812l2.875 5.313-3.375 4.281 0.5-9.594zm48.094 1.532l3.719 59.246c-0.584 0.94-1.167 0.62-1.75 0.63l-1.094-20.126 0.156-0.063-0.188-0.562-1.156-21.375v-0.5l-0.906-16.75 1.219-0.5zm-43.407 0.062l3.719 2.156-0.093 0.313c-0.759-0.618-1.991-1.076-3.032-1.594l-0.125-0.125-0.031 0.032c-0.238-0.123-0.484-0.242-0.688-0.376l0.25-0.406zm41.75 0.625l0.063 0.875-8.531 8.782-0.125-1.219 7.969-8.188 0.624-0.25zm-41.343 0.5l0.687 0.407-1.406 1.843-0.406-0.781 1.125-1.469zm39.937 0.094l-6.562 6.781-0.813-0.781-0.312-2.813 7.687-3.187zm-9.062 0.094c0.321-0.115 0.638 0.209 0.656 0.406l6.844 62.005c-0.386 0.82-1.021 0.57-1.406 0.5l-0.188-1.79 0.281-0.09c0.554-0.71 0.36-1.48-0.093-1.44l-0.313 0.1-0.25-2.07 0.375-0.12c0.554-0.71 0.359-1.48-0.094-1.44l-0.406 0.13-0.25-2.316 0.312-0.094c0.554-0.705 0.329-1.483-0.124-1.438l-0.313 0.094-0.25-2.5 0.344-0.125c0.554-0.705 0.359-1.483-0.094-1.437l-0.406 0.125-0.281-2.719 0.156-0.062c0.554-0.706 0.328-1.483-0.125-1.438l-0.157 0.062-0.25-2.312 0.188-0.062c0.554-0.706 0.359-1.483-0.094-1.438l-0.25 0.094-0.187-2 0.156-0.063c0.554-0.705 0.359-1.483-0.094-1.437l-0.219 0.062-0.25-2.125 0.25-0.093c0.554-0.706 0.36-1.483-0.093-1.438l-0.281 0.094-0.282-2.75 0.094-0.032c0.385-0.266 1.044-0.962 0.031-1.406l-0.25 0.094-0.219-2 0.25-0.094c0.554-0.705 0.36-1.483-0.093-1.437l-0.281 0.093-0.25-2.124 0.281-0.094c0.223-0.608 0.054-1.101-0.125-1.594l-0.313 0.125-0.219-2 0.407-0.156c0.031-0.466 0.323-0.941-0.188-1.407l-0.343 0.126-0.188-1.532 0.344-0.125c0.432-0.673 0.325-1.187-0.125-1.625l-0.344 0.125-0.25-2.125 0.219-0.062c0.429-0.68 0.289-1.289 0-1.563l-0.344 0.125-0.219-2 0.344-0.125c0.252-0.65 0.041-1.075-0.031-1.562l-0.469 0.156-0.187-1.75 0.437-0.156c0.269-0.646 0.229-1.197-0.031-1.563l-0.532 0.188-0.218-2 0.5-0.219c0.154-0.393 0.316-0.817-0.125-1.156l-0.5 0.187-0.157-1.5c0.048-0.322 0.147-0.653 0.282-0.687zm-30.032 0.281l2.063 1.188 1.469 2.593-3.313 1.344-1.656-3.125 1.437-2zm40.563 0.344l0.813 14.781-7.719-7.625 6.906-7.156zm-37.844 0.375l0.157 0.093 1.343 2.188-0.062 0.75c-0.007-0.004-0.027 0.005-0.031 0-0.688-0.695-0.816-1.914-1.5-2.656l0.093-0.375zm26.907 1.062l0.031 0.219-6.781 2.562v-0.062l6.75-2.719zm0.624 0.125c0.105 0.194 0.355 0.507 0.126 0.813l-7.438 3-0.031-0.875 7.343-2.938zm-33.218 0.375l0.437 0.813-3.343 4.437-0.626 0.25 0.063-1 3.469-4.5zm24.718 0.031c0.199-0.024 0.444 0.064 0.688 0.219l4.219 62.559c0.131 0.54-0.258 1.12-1.188 0.5l-4.125-62.778c0.127-0.314 0.208-0.475 0.406-0.5zm8.032 0.876l0.094 1.156-1-0.782 0.906-0.374zm-25.375 0.093l0.031 0.063 1.031-0.032v0.438c-0.194-0.074-0.78 0.059-1.125 0.062l0.063-0.531zm1.5 0h0.093l2.657 3.094-0.407 3.094-0.156 0.343c-0.03-0.022-0.069-0.035-0.094-0.062-0.511-0.571 0.266-2.011 0-2.688-0.309-0.788-0.796-1.455-1.343-2.093l0.062-0.031-0.125-0.063c-0.249-0.286-0.532-0.565-0.812-0.844l0.125-0.75zm-8.313 0.031l1.25 2.344-4.187 1.656 2.937-4zm30.938 0.407l1.406 1.093 0.031 0.376-1.375 0.5-1.468-1.376 1.406-0.593zm-24.719 0.437l1.625 0.032 0.5 0.718-4.75 2.032-0.781-1.438 3.406-1.344zm22.937 0.313l1.5 1.343-5.156 1.813-0.062-1.563 3.718-1.593zm-20.593 0.719l1.469 2.031-0.032 0.719-5.75 0.25-0.531-1 4.844-2zm14.969 0l0.062 1.156-9.281 3.75c-0.091-0.376-0.188-0.768-0.25-1.094l9.469-3.812zm9.531 0c0.386 0.293 0.246 1.005 0 1.124l-7.469 2.657-0.094-1 7.563-2.781zm-31.594 0.843l0.813 1.5-1.907 0.844-4.469 0.187v-0.312l5.563-2.219zm32.719 0.219l0.437 0.438-0.343 0.374-0.094-0.812zm-1.656 0.469l0.031 0.406-0.407-0.281 0.376-0.125zm-0.657 0.25l0.75 0.593 0.094 0.907-7 2.469-0.125-1.626 6.281-2.343zm-8.219 0.031l0.25 3.812-1.187-0.281-0.156-3.093 1.093-0.438zm-1.374 0.562l0.124 2.907-4.593-1.063 4.469-1.844zm-19.907 0.188l0.281 0.5-1.687 0.094 1.406-0.594zm33.407 0.062l7.531 7.438-2.375-0.562-6.125-5.907 0.969-0.969zm-25.813 0.469l-0.063 1.125-13.812 0.344-0.219-0.375v-0.344l14.094-0.75zm23.281 0.157c0.016 0.331 0.42 0.58 0.063 1.124l-7.5 2.688-0.063-1 7.5-2.812zm-19.5 0.656c0.026 0.351 0.091 0.692 0.188 1.031-0.632-0.36-2.121-0.015-3-0.156l0.156-0.563 2.656-0.312zm20.813 0l5.5 5.406-5.125-1.188-0.438-4.156 0.063-0.062zm-17.375 0.562l6.75 1.532 0.031 0.781-7.844-1.875 1.063-0.438zm-7.313 0.125v0.25l0.344 0.094-2.5 3.125-0.937-0.312-1.626-3.032 4.719-0.125zm-5.093 0.125l8.437 15.813-0.031 1.156-0.406-0.406-8.907-16.531 0.907-0.032zm-1.219 0.032l1.281 2.374-6.688-2.25 5.407-0.124zm29.281 0.062l0.031 0.219-2.437 2.719-2.563 0.906 3.219-3.219 1.75-0.625zm-37.031 0.031l0.062 0.063 0.125 0.312 0.125-0.062 17.063 16.875-0.094 2.343-17.406-17.124 0.125-2.407zm1.625 0.031l7.594 2.563 0.468 0.906-8.75-2.875-0.406-0.406 0.344-0.156 0.75-0.032zm13.187 0.157l1.531 0.406-4.062 4.781-0.625-1.187 3.156-4zm4.938 0.125l-1.344 57.626-1.875 0.28 1.844-57.344 1.375-0.562zm0.437 0.094l6.438 1.531 0.25 6.312-6.813-2.281 0.125-5.562zm16.906 0.124l0.188 1.438-1.344 0.469-0.437-0.063 1.593-1.844zm-20.437 0.157l1.313 0.343-0.157 4.188-3.906-1.312 2.75-3.219zm18.063 0.125l-1.313 1.312-1.437-0.312 2.75-1zm-33.438 0.156l8.594 2.844 0.625 1.156-2.25 2.875-6.969-6.875zm36.5 0.969c0.473 0.168 0.218 0.806 0 1.187l-7.531 2.594-0.094-1 7.625-2.781zm-6.281 0.031l1.656 0.406-0.594 0.594-2.281-0.562 1.219-0.438zm-4.531 0.031l1.218 0.313 0.344 5.031-1.25 1.25-0.312-6.594zm8.343 0.594l0.125 0.031-0.218 0.063 0.093-0.094zm-5.281 0.125l0.25 0.062 1.594 0.844-0.594 0.469-1.188-0.5-0.062-0.875zm-30.188 0.062l0.626 0.626 16.124 35.25-0.031 1-0.625-0.657-16.187-34.625 0.093-1.594zm31.25 0.188l1.188 0.281-0.188 0.188-1-0.469zm-19.937 0.281l0.594 0.188-0.313 0.375-0.281-0.563zm26.25 0.219l0.094 0.875-1.625-0.313 1.531-0.562zm1.781 0.156l8.688 1.969-0.094 0.563-0.625 0.281-0.25-0.063-7.625-1.812-0.094-0.938zm-9.062 0.219l0.781 0.344-0.75 0.281-0.031-0.625zm-29 0.187l5.687 5.594-2.031 2.5-3.656-8.094zm12.625 0.063l4.062 1.375-0.031 0.656-4.5-1.468 0.469-0.563zm21.75 0.063l2.031 0.468 0.062 0.75-2.656-1 0.563-0.218zm-1 0.374l3 1.094-1.063 0.375-2.875-1.125 0.938-0.344zm-34.75 0.219l4 8.719-4.719 5.906 0.719-14.625zm13.375 0.125l4.656 1.5-0.25 6.375-1.094 0.438-4-7.531 0.688-0.782zm26.187 0.032l7.094 1.687 0.25 0.25-5.969 2.406-1.125-2-0.25-2.343zm-6.156 0.031l2.906 1.187-5.656 1.969v-0.094l2.75-3.062zm-0.75 0.343l-2.031 2.188-0.094-1.281 0.188-0.188 1.937-0.719zm-21.687 0.063l0.593 1.125-2.031 2.375-0.75-0.719 2.188-2.781zm27.343 0.313c0.347 0.245 0.548 0.737 0.188 1.218l-7.75 2.594-0.031-1.062 7.593-2.75zm-18 0.593l6.844 2.313v0.156l-0.531 0.219-6.344-2.063 0.031-0.625zm27.969 0.438l0.094 1.625-8.094 3.25-0.156-1.594 8.156-3.281zm-36.531 0.093l3.75 6.907-0.781 0.281-4.938-4.875 1.969-2.313zm8.531 0.376l5.969 1.968-6.063 2.656 0.094-4.624zm17.75 0.031l0.188 1.562-5.876 2.063-1.343-1.125 7.031-2.5zm-9.25 0.531l0.094 1.219-8.188 8.437-0.625 0.25 0.031-0.968 8.688-8.938zm11.156 0.625l0.594 1.063-0.469 0.187-0.125-1.25zm8.469 0.344l0.063 0.906-7.532 8.063-0.125-1.282 6.875-7.406 0.719-0.281zm-9.687 0.062c0.234 0.327 0.267 0.677 0.031 1.063l-7.781 2.812-0.063-1 7.813-2.875zm-11.75 0.438l-2.938 3.031-3.906 1.781 0.062-1.843 6.782-2.969zm19.906 0.125l-3.656 3.906-1.126-1.938 4.782-1.968zm-17.969 0.156l0.313 4.5-1.407 0.562-0.187-3.718 1.281-1.344zm-21.563 0.438l0.688 0.687-2.406 2.813-0.375-0.844 2.093-2.656zm23.469 0.124l1.094 0.938-0.937 0.312-0.094-0.031-0.063-1.219zm17.657 0l0.75 13.844-5.157-9.125 4.407-4.719zm-10.126 0.126l0.032 0.25-4.469 1.75-0.219-0.219 4.656-1.781zm0.063 0.531l0.156 1.469-7.437 2.593-0.094-1.125 7.375-2.937zm-30.125 0.156l4.156 4.063-5.187 2.093-1.469-3.219 2.5-2.937zm18.938 0.406l0.156 3.438-5.688 2.281 5.532-5.719zm14.5 0.188l1.187 2.125-0.594 0.625-1.343-2.438 0.75-0.312zm-1.188 0.469l1.438 2.656-1.219 1.312-0.407-3.875 0.188-0.093zm-7.25 0.187l0.25 0.219-1.469 0.562c-0.075-0.077-0.164-0.155-0.219-0.218l1.438-0.563zm5.688 0.187c0.21 0.28 0.325 0.607 0.124 1.063l-7.874 2.687-0.063-0.937 7.813-2.813zm-15.469 0.469l-3.407 3.531 0.032-2 3.375-1.531zm8.031 0c0.087 0.08 0.178 0.173 0.25 0.25l-0.75 0.281-0.031-0.312 0.531-0.219zm-13.781 0.407l-0.063 1.843-0.031 0.031-0.813-1.531 0.907-0.343zm20.937 0.593l0.25 2.125-0.468 0.156-1.876-1.531 2.094-0.75zm-34.5 0.125l0.375 0.844-4.437 5.188-0.875 0.343v-0.187l4.937-6.188zm11.469 0.125l0.813 1.5-0.126 0.063-1.343-1.313 0.656-0.25zm13.563 0.344l0.124 1.625-9.343 3.75 0.031-1.656 9.188-3.719zm6.937 0.313l1.844 1.531-1.625 0.562-1.688-1.562 1.469-0.531zm-31.437 0.406l1.156 2.531-5.032 2.031 3.876-4.562zm39.031 0l5.531 9.718 0.062 1.407-0.968-0.907-5.219-9.562 0.594-0.656zm-31.063 0.094l1.375 1.343-5.906 2.469-0.781-1.688 5.312-2.124zm21.594 0.156l1.594 1.594-4.5 1.531-0.156-2.031 3.062-1.094zm-17.656 0.437l0.094 0.188-0.157-0.157 0.063-0.031zm22.812 0.157c0.602 0.149 0.385 0.881 0.032 1.031l-2.282 0.812-5.718 1.969-0.063-0.938 8.031-2.874zm3.375 0.187l4.469 8.156-6.25-5.843-0.062-0.376 1.843-1.937zm-13.437 0.344l0.344 5.343-1.688-0.406-0.156-4.312 1.5-0.625zm-15.063 0.312l2.875 2.844-8.468 0.656-0.407-0.937 6-2.563zm13.125 0.5l0.156 4.031-6.343-1.5 6.187-2.531zm11.25 0.188l0.063 0.219-0.75 0.812-0.625-0.562 1.312-0.469zm0.438 0.343l0.125 1.219-0.438 0.469-2 0.688 1.157-1.219 1.156-1.157zm-33.125 0.094l0.781 1.656-2.5 1.032-5 0.375 0.062-0.407 6.657-2.656zm30.969 0.188l0.781 0.687-1.469 1.594-4.656 1.594-0.125-1.907 5.469-1.968zm4.124 0.937l7.626 7.313-2.688-0.656-4.719-4.594-0.219-2.063zm-1.281 0.313c0.547-0.146 0.398 0.8-0.156 1.125l-7.937 2.781-0.063-1.062 8.156-2.844zm-22.375 0.5l0.094 0.094-0.031 0.781-8.25 0.719-0.375-0.876 8.562-0.718zm-10.5 0.062l0.188 0.469-1.563 0.125 1.375-0.594zm13.594 0.188l9.219 2.125 0.062 1.062-9.812-2.375v-0.594l0.531-0.218zm-13.25 0.594l0.406 0.874-8.156 0.657-0.375-0.313 0.063-0.531 8.062-0.687zm32.125 0l0.281 2.75-0.781 0.281-2.531-0.563 1.812-2.031 1.219-0.437zm-21.906 0.312l-0.625 17.188-7.5-16.5 8.125-0.688zm20.219 0.312l-1.657 1.782-1.562-0.344 0.343-0.406 2.876-1.032zm-17.75 0.032l7.687 1.812 0.219 6.25c0.051 0.042 0.106 0.062 0.156 0.094l-8.438 9 0.376-17.156zm-12.188 0.468l7.469 16.313-15.219-15.281 1.094-0.469 6.656-0.563zm33.625 0.094l3.531 3.532-3.25-0.782-0.281-2.75zm-42.281 0.5l17.656 18.032-0.094 1.906-17.687-17.688 0.125-2.25zm35.156 0.156l-0.125 0.126-0.156-0.032 0.281-0.094zm-0.719 0.282l4.813 1.031-2.625 0.906-3.969-1.062-0.031-0.219 1.812-0.656zm-5.469 0.406l1.75 0.406 0.219 3.656-1.687 1.813c-0.032-0.006-0.062-0.023-0.094-0.031l-0.188-5.844zm12.094 0.219c0.602 0.149 0.385 0.882 0.032 1.031l-2.469 0.844h-0.031l-0.032 0.031-5.687 1.969-0.063-1 3.688-1.282h0.031l4.531-1.593zm-8.406 0.531l1.062 0.281-0.968 1.125-0.094-1.406zm1.406 0.375l1.282 0.344-0.688 0.719-1.844 0.624-0.031-0.218 1.281-1.469zm1.532 0.437l0.5 0.126-0.907 0.312 0.407-0.438zm5.093 0.063l0.094 0.906-1.719-0.343 1.625-0.563zm1.938 0.125l7.312 1.688 0.313 0.281v0.156l-0.125 0.594-0.313 0.125-7.062-1.688-0.125-1.156zm-4.125 0.625l2.344 0.531 0.093 0.875-7.875 2.657-0.125-1.626 1.031-0.874 4.532-1.563zm4.281 0.906l5.437 1.281 0.5 0.5-5.5 2.313-0.437-4.094zm-1.406 0.5c0.601 0.149 0.384 0.913 0.031 1.063l-8.25 2.875-0.062-1.031 8.281-2.907zm-8.157 0.407l-0.312 0.281v-0.157l0.312-0.124zm-2.218 0.437l0.062 1.281-10.156 10.875-0.469 0.188 0.031-1.063 10.532-11.281zm19.344 0.406l0.062 1.688-6.938 2.937-0.187-1.718 7.063-2.907zm-9.282 0.157l0.219 2-8 2.624-0.125-1.843 7.906-2.781zm-9.937 1.343l0.375 5.781-9.75 4.094 9.156-9.812c0.072-0.018 0.146-0.04 0.219-0.063zm10.625 0.688c0.601 0.149 0.384 0.882 0.031 1.031l-8.406 2.938-0.063-1.032 8.438-2.937zm-0.344 1.375l0.281 2.062-2.031 0.906-6.094 2.032-0.156-2.125 8-2.875zm0.688 2.344c0.601 0.149 0.384 0.913 0.031 1.062l-8.469 2.875-0.125-1 8.563-2.937zm-0.313 1.406l0.281 2.75-8.218 2.687-0.188-2.531 8.125-2.906zm-10.25 0.437l0.125 1.907-11.125 4.718-0.063-2.062 11.063-4.563zm11.187 2.25c0.602 0.149 0.385 0.882 0.032 1.031l-8.813 3-0.093-1 8.874-3.031zm-0.5 1.469l0.25 2.531-8.343 2.719-0.219-2.375 8.312-2.875zm0.844 2.5c0.602 0.149 0.385 0.913 0.032 1.062l-8.876 2.968-0.062-0.97 8.906-3.06zm-0.468 1.438l0.25 2.342-8.438 2.78-0.156-2.25 8.344-2.872zm0.906 2.282c0.601 0.15 0.384 0.91 0.031 1.06l-9.063 3.06-0.062-1 9.094-3.12zm-0.532 1.47l0.25 2.09-8.562 2.81-0.156-1.97 8.468-2.93zm0.813 2.06c0.601 0.15 0.385 0.91 0.031 1.06l-9.094 3.07-0.062-0.97 9.125-3.16z"/>
  </g>
  <metadata>
    <rdf:RDF>
      <cc:Work>
        <dc:format>image/svg+xml</dc:format>
        <dc:type rdf:resource="http://purl.org/dc/dcmitype/StillImage"/>
        <cc:license rdf:resource="http://creativecommons.org/licenses/publicdomain/"/>
        <dc:publisher>
          <cc:Agent rdf:about="http://openclipart.org/">
            <dc:title>Openclipart</dc:title>
          </cc:Agent>
        </dc:publisher>
        <dc:title>RPG map symbols: Watchtower</dc:title>
        <dc:date>2008-01-23T11:47:41</dc:date>
        <dc:description>Part of the fantasy RPG map elements collection (houses and various buildings): a watch tower</dc:description>
        <dc:source>http://openclipart.org/detail/11548/rpg-map-symbols:-watchtower-by-nicubunu</dc:source>
        <dc:creator>
          <cc:Agent>
            <dc:title>nicubunu</dc:title>
          </cc:Agent>
        </dc:creator>
        <dc:subject>
          <rdf:Bag>
            <rdf:li>building</rdf:li>
            <rdf:li>cartography</rdf:li>
            <rdf:li>clip art</rdf:li>
            <rdf:li>clipart</rdf:li>
            <rdf:li>fantasy</rdf:li>
            <rdf:li>geography</rdf:li>
            <rdf:li>image</rdf:li>
            <rdf:li>map</rdf:li>
            <rdf:li>media</rdf:li>
            <rdf:li>png</rdf:li>
            <rdf:li>public domain</rdf:li>
            <rdf:li>svg</rdf:li>
            <rdf:li>tower</rdf:li>
            <rdf:li>wooden</rdf:li>
          </rdf:Bag>
        </dc:subject>
      </cc:Work>
      <cc:License rdf:about="http://creativecommons.org/licenses/publicdomain/">
        <cc:permits rdf:resource="http://creativecommons.org/ns#Reproduction"/>
        <cc:permits rdf:resource="http://creativecommons.org/ns#Distribution"/>
        <cc:permits rdf:resource="http://creativecommons.org/ns#DerivativeWorks"/>
      </cc:License>
    </rdf:RDF>
  </metadata>
</svg>
